<?xml version="1.0" encoding="UTF-8"?> <svg xmlns="http://www.w3.org/2000/svg" xmlns:xlink="http://www.w3.org/1999/xlink" width="800px" height="156px" viewBox="0 0 800 156"> <!-- Generator: Sketch 58 (84663) - https://sketch.com --> <title>Flatonica</title> <desc>Created with Sketch.</desc> <g id="Page-1" stroke="none" stroke-width="1" fill="none" fill-rule="evenodd"> <g id="Artboard" transform="translate(-50.000000, -157.000000)" fill-rule="nonzero"> <g id="Flatonica" transform="translate(50.000000, 157.000000)"> <g id="Group"> <g id="Group-2"> <polyline id="Path" fill="#FFFFFF" points="187.572268 2.84217094e-14 160.261089 155.526629 52.3066636 155.526629 58.328026 121.829193 127.573693 121.829193 132.94991 90.7238668 75.7469674 90.7238668 81.5532809 57.0264306 138.756224 57.0264306 148.648462 2.84217094e-14"></polyline> <polygon id="Rectangle" fill="#FFFFFF" points="74.6410416 56.9114446 135.828155 56.9114446 128.755295 90.7243565 67.5681812 90.7243565"></polygon> <polygon id="Rectangle" fill="#2F9CF8" points="30.5197012 -7.10542736e-15 135.613223 -7.10542736e-15 129.422647 34.7869466 23.5859817 34.7869466"></polygon> <polygon id="Rectangle" fill="#2F9CF8" points="23.8687522 33.4344301 62.1705155 33.4344301 37.8595235 155.528487 2.13162821e-14 155.528487"></polygon> </g> </g> <path d="M240.551724,125.981026 L240.551724,35.5493608 L306.775739,35.5493608 L306.775739,55.2084184 L263.845243,55.2084184 L263.845243,70.257766 L305.827747,70.257766 L305.827747,90.0524033 L263.845243,90.0524033 L263.845243,125.981026 L240.551724,125.981026 Z M318.82878,125.981026 L318.82878,35.5493608 L339.684605,35.5493608 L339.684605,125.981026 L318.82878,125.981026 Z M393.449296,125.981026 L393.449296,119.4732 C389.386472,124.354069 381.531682,127.607982 373.135181,127.607982 C363.113551,127.607982 350.654227,120.828997 350.654227,106.050809 C350.654227,90.1879829 363.113551,85.4426936 373.135181,85.4426936 C381.802536,85.4426936 389.5219,88.1542871 393.449296,93.0351568 L393.449296,84.7647944 C393.449296,79.0704466 388.573908,75.274215 380.177407,75.274215 C373.67689,75.274215 366.905519,77.7146499 361.623849,82.1887799 L354.17534,69.0375486 C362.571841,61.8518241 373.812318,58.8690705 383.833948,58.8690705 C399.54353,58.8690705 414.305121,64.698998 414.305121,85.0359538 L414.305121,125.981026 L393.449296,125.981026 Z M393.449296,109.169142 L393.449296,103.339214 C391.282457,100.356461 386.407069,98.7295047 381.802536,98.7295047 C376.250012,98.7295047 371.374624,101.16994 371.374624,106.321968 C371.374624,111.473997 376.250012,113.914432 381.802536,113.914432 C386.407069,113.914432 391.282457,112.287475 393.449296,109.169142 Z M454.256213,127.607982 C440.984324,127.607982 433.806671,120.964577 433.806671,108.355664 L433.806671,78.6637076 L422.972476,78.6637076 L422.972476,60.496027 L433.806671,60.496027 L433.806671,42.5995056 L454.527068,42.5995056 L454.527068,60.496027 L467.798956,60.496027 L467.798956,78.6637076 L454.527068,78.6637076 L454.527068,102.525736 C454.527068,106.321968 456.693906,109.169142 460.350448,109.169142 C462.652714,109.169142 464.95498,108.355664 465.632117,107.542186 L469.694941,123.269432 C467.121819,125.709867 461.975577,127.607982 454.256213,127.607982 Z M509.510606,127.607982 C487.300506,127.607982 473.893191,111.609577 473.893191,93.1707365 C473.893191,74.7318963 487.300506,58.8690705 509.510606,58.8690705 C531.991559,58.8690705 545.263448,74.7318963 545.263448,93.1707365 C545.263448,111.609577 531.991559,127.607982 509.510606,127.607982 Z M509.510606,109.169142 C518.719671,109.169142 523.865913,101.983418 523.865913,93.1707365 C523.865913,84.4936351 518.719671,77.3079109 509.510606,77.3079109 C500.436968,77.3079109 495.426152,84.4936351 495.426152,93.1707365 C495.426152,101.983418 500.436968,109.169142 509.510606,109.169142 Z M600.51784,125.981026 L600.51784,88.1542871 C600.51784,80.1550848 596.31959,77.3079109 589.819073,77.3079109 C583.589411,77.3079109 579.526588,80.6974035 577.088895,83.6801571 L577.088895,125.981026 L556.23307,125.981026 L556.23307,60.496027 L577.088895,60.496027 L577.088895,68.4952298 C581.01629,63.8855197 588.735653,58.8690705 599.705276,58.8690705 C614.602293,58.8690705 621.373665,67.5461718 621.373665,79.6127661 L621.373665,125.981026 L600.51784,125.981026 Z M668.231556,93.1707365 C668.231556,72.6982007 683.534856,58.8690705 703.984399,58.8690705 C718.068851,58.8690705 726.871635,65.1057371 730.799031,70.9356645 L717.256287,83.5445774 C714.683166,79.7483457 710.484916,77.3079109 704.932391,77.3079109 C696.265035,77.3079109 689.629091,83.273418 689.629091,93.1707365 C689.629091,103.068055 696.265035,109.169142 704.932391,109.169142 C710.484916,109.169142 714.683166,106.457548 717.256287,102.796896 L730.799031,115.541388 C726.871635,121.235736 718.068851,127.607982 703.984399,127.607982 C683.534856,127.607982 668.231556,113.778852 668.231556,93.1707365 Z M778.875773,125.981026 L778.875773,119.4732 C774.812943,124.354069 766.958158,127.607982 758.561655,127.607982 C748.540026,127.607982 736.0807,120.828997 736.0807,106.050809 C736.0807,90.1879829 748.540026,85.4426936 758.561655,85.4426936 C767.22901,85.4426936 774.948377,88.1542871 778.875773,93.0351568 L778.875773,84.7647944 C778.875773,79.0704466 774.00038,75.274215 765.603877,75.274215 C759.103366,75.274215 752.331989,77.7146499 747.050319,82.1887799 L739.601813,69.0375486 C747.998315,61.8518241 759.238792,58.8690705 769.260421,58.8690705 C784.970006,58.8690705 799.731594,64.698998 799.731594,85.0359538 L799.731594,125.981026 L778.875773,125.981026 Z M778.875773,109.169142 L778.875773,103.339214 C776.708928,100.356461 771.833543,98.7295047 767.22901,98.7295047 C761.676488,98.7295047 756.801096,101.16994 756.801096,106.321968 C756.801096,111.473997 761.676488,113.914432 767.22901,113.914432 C771.833543,113.914432 776.708928,112.287475 778.875773,109.169142 Z" fill="#FFFFFF"></path> <polygon id="Path" fill="#FFFFFF" points="636.541537 125.981026 636.541537 60.496027 657.397362 60.496027 657.397362 125.981026"></polygon> <path d="M646.969449,52.2256649 C640.333505,52.2256649 635.051835,46.9380563 635.051835,40.2946506 C635.051835,33.6512449 640.333505,28.3636364 646.969449,28.3636364 C653.605393,28.3636364 658.887064,33.6512449 658.887064,40.2946506 C658.887064,46.9380563 653.605393,52.2256649 646.969449,52.2256649 Z" id="Path" fill="#FFFFFF"></path> </g> </g> </g> </svg> 